<?xml version="1.0" standalone="no"?>
<!DOCTYPE svg PUBLIC "-//W3C//DTD SVG 1.1//EN" "http://www.w3.org/Graphics/SVG/1.1/DTD/svg11.dtd" >
<svg xmlns="http://www.w3.org/2000/svg">
<metadata>
Created by FontForge 20120731 at Wed Jan  7 00:55:33 2015
 By Ads
</metadata>
<defs>
<font id="iconfont" horiz-adv-x="1024" >
  <font-face 
    font-family="iconfont"
    font-weight="500"
    font-stretch="normal"
    units-per-em="1024"
    panose-1="2 0 6 3 0 0 0 0 0 0"
    ascent="812"
    descent="-212"
    x-height="792"
    bbox="0 -224 1037 812"
    underline-thickness="50"
    underline-position="-100"
    unicode-range="U+0078-E61F"
  />
<missing-glyph horiz-adv-x="374" 
d="M34 0v682h272v-682h-272zM68 34h204v614h-204v-614z" />
    <glyph glyph-name=".notdef" horiz-adv-x="374" 
d="M34 0v682h272v-682h-272zM68 34h204v614h-204v-614z" />
    <glyph glyph-name=".null" horiz-adv-x="0" 
 />
    <glyph glyph-name="nonmarkingreturn" horiz-adv-x="341" 
 />
    <glyph glyph-name="x" unicode="x" horiz-adv-x="1001" 
d="M281 543q-27 -1 -53 -1h-83q-18 0 -36.5 -6t-32.5 -18.5t-23 -32t-9 -45.5v-76h912v41q0 16 -0.5 30t-0.5 18q0 13 -5 29t-17 29.5t-31.5 22.5t-49.5 9h-133v-97h-438v97zM955 310v-52q0 -23 0.5 -52t0.5 -58t-10.5 -47.5t-26 -30t-33 -16t-31.5 -4.5q-14 -1 -29.5 -0.5
t-29.5 0.5h-32l-45 128h-439l-44 -128h-29h-34q-20 0 -45 1q-25 0 -41 9.5t-25.5 23t-13.5 29.5t-4 30v167h911zM163 247q-12 0 -21 -8.5t-9 -21.5t9 -21.5t21 -8.5q13 0 22 8.5t9 21.5t-9 21.5t-22 8.5zM316 123q-8 -26 -14 -48q-5 -19 -10.5 -37t-7.5 -25t-3 -15t1 -14.5
t9.5 -10.5t21.5 -4h37h67h81h80h64h36q23 0 34 12t2 38q-5 13 -9.5 30.5t-9.5 34.5q-5 19 -11 39h-368zM336 498v228q0 11 2.5 23t10 21.5t20.5 15.5t34 6h188q31 0 51.5 -14.5t20.5 -52.5v-227h-327z" />
    <glyph glyph-name="uniE600" unicode="&#xe600;" 
d="M441 678q2 11 12 20t22 9h21h30h21q5 0 10 -1.5t9.5 -4t8 -6t6 -8t3.5 -9.5q13 -79 13 -80q1 -4 2 -7.5t2.5 -5.5t2.5 -3.5t2 -1.5l1 -1q22 -10 32 -14q6 -2 10 -1t7 2l3 2q7 4 17 11.5t29 21t24 16.5q8 6 21.5 6t19.5 -6l4 -5l6 -6q3 -2 8 -6.5t8 -7.5l8 -8l8 -8l8 -8
l5 -5q10 -10 11 -24.5t-6 -22.5q-41 -58 -47 -66q-9 -13 -4 -25q0 -1 1 -3.5t2 -4.5t2 -5t2 -5t2 -4.5t2 -4.5v-1q4 -10 15 -12q3 0 10 -1t17.5 -3t21 -3.5t20.5 -3t15 -2.5q9 -2 16 -7.5t11 -14t4 -19.5q0 -60 -1 -64q0 -33 -30 -38q-74 -13 -81 -15q-13 -2 -18 -12
q-9 -20 -11 -25q-5 -13 2 -23q0 -1 1 -2q40 -56 47 -67q7 -10 7 -22.5t-12 -27.5q-36 -35 -47 -47q-4 -3 -8 -5.5t-8.5 -4t-9 -2t-8.5 0.5t-8.5 2.5t-8.5 4.5q-1 1 -6.5 5t-8.5 6t-8.5 6t-9.5 7t-9 6.5t-8.5 6t-6.5 4.5t-5 3q-14 11 -27 6q-2 -1 -4.5 -2.5t-4 -2t-4 -1.5
t-4 -1.5t-3 -1.5t-3 -1.5t-3.5 -1.5q-4 -2 -6 -4t-4 -5.5t-3 -8.5v-4q-1 -5 -2 -8l-1 -9q-1 -6 -2 -11t-2 -11t-2 -11t-2 -10.5t-1.5 -9.5t-1.5 -7q-5 -30 -44 -30q-45 -1 -59 0q-34 0 -40 32q-11 67 -13 77q-2 9 -5.5 14t-10.5 8q-18 7 -22 9q-15 6 -27 -3q-48 -34 -64 -45
q-8 -6 -17.5 -7.5t-18.5 1.5t-15 9q-39 38 -48 47.5t-11 23t6 25.5q1 2 6.5 9.5t8 11t8 11t9 12t7 10t6.5 9.5q5 8 7 13t1.5 7.5t-3.5 10.5l-9 22q-6 12 -21 15q-1 0 -5 0.5t-6.5 1t-7 1t-8.5 1.5t-9 1.5t-9.5 1.5t-9.5 2t-9.5 1.5t-8.5 1.5q-37 7 -37 41v62q0 10 3.5 19
t10.5 14.5t16 7.5q8 1 37 6t38 7q13 2 18.5 5t8.5 11q9 22 11 27.5t0 11t-8 14.5q-29 42 -40 57q-10 14 -10.5 28.5t9.5 25.5q41 40 50 49t21.5 10.5t26.5 -7.5q2 -1 9.5 -6.5t11.5 -7.5l10 -8q7 -5 11.5 -8t9.5 -6.5t9 -5.5q7 -5 11.5 -7.5t8.5 -2.5t9 2l5 2q3 2 5.5 3
t5.5 2t5 2l4 2q2 1 3 1h1q1 1 1.5 1t2.5 1l2 4q2 1 3.5 4.5t1.5 7.5q0 1 1 6l2 8q0 2 1 8t1.5 10t1.5 10t2 10t1.5 9.5t1.5 9t1.5 6.5t0.5 5zM453 593q-2 -15 -9 -24.5t-19 -14.5q-6 -3 -9 -4l-4 -2q-2 0 -5.5 -1.5t-8.5 -3.5q-26 -11 -49 5q-13 10 -64 46q-10 7 -19 -1
l-12 -11l-21 -22q-12 -12 -13 -14q-9 -8 -1 -19q2 -3 10 -14.5t19.5 -27t14.5 -20.5q18 -25 8 -50q-3 -7 -4 -9.5t-3 -6.5t-4 -11q-10 -23 -44 -29q-4 -1 -73 -12q-5 -1 -8.5 -4t-3.5 -10v-66q0 -11 12 -14q3 -1 18.5 -3.5t35 -6t23.5 -3.5q28 -5 38 -27q3 -8 4.5 -11
t3 -6.5t4.5 -11.5q11 -25 -10 -53l-40 -58q-9 -12 0 -21q5 -6 46 -46q7 -7 18 -1q3 2 16.5 11.5t30 21.5t19.5 14q9 7 21 8.5t30 -4.5q8 -3 12.5 -4.5t5.5 -2t3.5 -1.5t5.5 -3q4 -1 8 -5t7.5 -9.5t6 -12t3.5 -13.5q2 -11 4 -26t5 -30t4 -19q4 -12 14 -12h65q6 0 9.5 3t4.5 9
l12 70q6 37 34 48l22 9q5 2 9.5 3t9.5 1t9.5 -1t9.5 -3t11 -6q6 -5 14.5 -11t16.5 -11t14.5 -9.5t11.5 -8t7 -4.5q11 -8 19 0l4 4l7 7l8 8l10 10l8 8l6 6l4 4q8 8 1 18l-50 70q-12 17 -3 42q8 19 11 27q4 10 15 18t24 10q6 1 19.5 3.5t26 5t24.5 4.5l11 2q9 1 9 11v68
q0 12 -11 14q-4 0 -20.5 3t-38 6.5t-26.5 4.5q-22 3 -33 32l-3 6l-2 3q0 1 -1.5 4.5t-3.5 8.5q-5 11 -3.5 24t9.5 24q2 4 6.5 10.5t9.5 13.5t10.5 14.5t9.5 13.5t7.5 10.5t3.5 5.5q2 2 2.5 3.5t0.5 3.5t-1 3.5t-3 3.5l-47 47q-9 9 -18 3q-1 -1 -9 -6.5t-18 -12.5l-20 -14
q-10 -7 -18.5 -13t-9.5 -6q-5 -4 -17 -5t-19 2q-4 2 -8.5 3.5t-8 3t-8 3.5t-7.5 3q-3 2 -7.5 5.5t-8 8t-6.5 10t-3 9.5q-1 3 -2.5 12.5t-3.5 21.5t-4 23t-3.5 19.5t-1.5 9.5q-2 10 -12 10h-17h-34h-18q-5 0 -8 -4t-4 -7t-13 -78zM681 300q0 -70 -49.5 -119.5t-119.5 -49.5
q-46 0 -85 22.5t-61.5 61.5t-22.5 85q0 70 49.5 119.5t119.5 49.5t119.5 -49.5t49.5 -119.5zM512 496q-81 0 -138 -57.5t-57 -138.5t57 -138.5t138 -57.5t138.5 57.5t57.5 138.5t-57.5 138.5t-138.5 57.5z" />
    <glyph glyph-name="uniE601" unicode="&#xe601;" 
d="M244 187q-13 0 -22 9t-9.5 22.5t8.5 22.5q59 60 135 92.5t160 32.5q82 0 156.5 -31t133.5 -89q9 -10 9 -23t-9.5 -22.5t-22.5 -9.5t-23 9q-101 102 -244 102q-71 0 -135 -27.5t-114 -77.5q-9 -10 -23 -10zM97.5 350q-13.5 0 -22.5 9q-6 6 -8.5 14t0 16.5t8.5 14.5
q58 59 129 100t150 62.5t162 21.5q123 0 235.5 -46.5t200.5 -133.5q10 -9 10 -22t-9.5 -22.5t-22.5 -9.5t-23 9q-52 52 -115 88t-133 54.5t-143 18.5q-113 0 -215 -42.5t-181 -122.5q-9 -9 -22.5 -9zM511 -21q-12 0 -21 9l-96 88q-9 9 -9.5 22t7.5 23q48 55 119 55
q76 0 123 -60q8 -10 7 -22.5t-11 -21.5l-98 -85q-3 -2 -6.5 -4t-7 -3t-7.5 -1zM464 99l48 -45l50 43q-22 14 -49 14.5t-49 -12.5z" />
    <glyph glyph-name="uniE602" unicode="&#xe602;" 
d="M976 416q-87 101 -208.5 156t-256.5 55t-256.5 -55t-208.5 -156q-8 -9 -7.5 -21t9.5 -21q4 -3 8.5 -4.5t9 -2t9 0.5t8.5 3.5t7 5.5q79 91 189 141t232 50t232 -50t189 -141q4 -5 10 -7.5t12 -2.5q11 0 19 7q10 9 10.5 21t-7.5 21zM511 460q-101 0 -191 -42.5t-153 -120.5
q-3 -3 -4.5 -6t-2 -6t-0.5 -6.5t0.5 -6.5t2 -6t3.5 -6t5 -5q9 -8 21.5 -6.5t19.5 10.5q55 68 133 105t166 37t166 -37t132 -105q5 -5 11 -8t12 -3q11 0 19 7q9 8 10.5 20t-6.5 22q-63 78 -153 120.5t-191 42.5zM511 293q-68 0 -127 -31t-97 -86q-6 -11 -4 -23t12 -19
q8 -5 17 -5q16 0 24 13q29 43 75.5 67.5t99.5 24.5q52 0 98 -24t75 -66q7 -10 19 -12t22 5q7 4 10 11.5t2.5 15.5t-4.5 14q-19 27 -43.5 48.5t-53 36.5t-60.5 22.5t-65 7.5zM511 90q-24 0 -41.5 -17t-17.5 -42q0 -15 8 -28.5t21.5 -21.5t29.5 -8q24 0 41.5 17t17.5 41.5
t-17.5 41.5t-41.5 17z" />
    <glyph glyph-name="uniE603" unicode="&#xe603;" 
d="M65 12h894v65h-894v-65zM65 267h894v66h-894v-66zM65 588v-65h894v65h-894z" />
    <glyph glyph-name="uniE604" unicode="&#xe604;" 
d="M561 710q11 0 11 -11v-65q0 -13 8 -23.5t20 -13.5q31 -10 59 -25q8 -4 18 -4q5 0 10 1t9.5 3.5t8.5 6.5l24 24l21 22q5 4 7 4q4 0 9 -4l71 -71q4 -4 4 -9l-1 -2l-4 -4l-9 -9l-36 -37q-21 -20 -7 -46q15 -27 24 -58q4 -13 14.5 -20.5t23.5 -7.5h64q9 0 11 -8v-3v-100
q0 -7 -2.5 -9t-8.5 -2h-64q-13 0 -23.5 -7.5t-13.5 -20.5q-3 -7 -5.5 -15t-5.5 -15t-6.5 -14.5t-7.5 -14.5q-13 -25 7 -46l24 -23l21 -22q7 -7 0 -15l-71 -71q-4 -4 -8 -4q-1 0 -3 1l-4 3l-21 22l-24 23q-3 4 -7.5 6.5t-9.5 4t-10 1.5q-10 0 -19 -5q-27 -15 -59 -24
q-12 -4 -20 -14.5t-8 -23.5v-63v-6q0 -1 -2.5 -3t-8.5 -2h-99q-5 0 -7.5 1.5t-3 3.5t-0.5 6v63q0 13 -8 23.5t-20 14.5q-16 4 -30.5 10.5t-28.5 13.5q-9 5 -19 5q-16 0 -27 -12l-46 -45q-4 -4 -6 -4q-4 0 -10 5l-69 69q-8 9 -1 16l45 44l1 1q21 21 7 46q-5 10 -9.5 19.5
t-8 19.5t-6.5 20q-4 13 -14.5 20.5t-23.5 7.5h-65q-2 0 -3 1l-3 1q-2 1 -3 3.5t-1 6.5v98q0 4 1 6.5t3 3.5t3.5 1.5t2.5 0.5h65q13 0 23.5 7.5t14.5 20.5q9 31 24 58q14 26 -7 46q-5 6 -10 11t-9.5 9t-8.5 8.5t-7 7.5l-6 6q-3 3 -5 4q-7 7 1 16l69 69q6 5 10 5q1 0 3 -1
t3 -3l46 -46q12 -11 28 -11q5 0 9.5 1t8.5 3q14 8 29 14t30 11q6 1 11.5 5t9 8.5t5.5 11t2 12.5v65v3q0 1 0.5 2.5t2 2.5t3.5 2t6 1h98zM561 749h-99h-3q-2 0 -7 -1t-10 -3t-10.5 -6t-9.5 -9t-7 -13t-3 -18v-65q-35 -11 -66 -27l-46 46q-15 15 -34 15q-6 0 -12 -1.5t-10 -4
t-7.5 -4.5t-5.5 -4l-2 -1l-70 -71q-1 0 -1.5 -1t-2.5 -3.5t-4 -5.5t-3.5 -7.5t-2.5 -9t-1 -10t1 -11t4.5 -11.5t9.5 -11q6 -6 17.5 -18t28.5 -28q-17 -31 -28 -66h-65q-21 0 -33.5 -12.5t-14.5 -25.5l-1 -12v-100v-2q0 -1 0.5 -4t1.5 -6.5t2.5 -8t4 -8.5t6.5 -8t8.5 -6.5
t11.5 -4.5t14 -2h65q11 -35 27 -66q-37 -37 -45 -46q-10 -9 -13.5 -20t-2 -19t5.5 -16t6 -11t4 -4l70 -71q16 -15 37 -15q19 0 34 15q6 6 10.5 11t15 15t19.5 20q16 -9 32.5 -15.5t34.5 -12.5v-63q0 -12 3.5 -21t9 -14t11 -8.5t12 -5t9.5 -1.5h5h99q6 0 14.5 1.5t22 13.5
t13.5 35v63q36 11 67 28q10 -11 19.5 -20.5t17 -16.5t8.5 -8q8 -9 17 -12.5t17 -3.5q9 0 18 4t14 8l4 4l71 70q1 2 3.5 4.5t6.5 10.5t5.5 16t-2 19t-13.5 21l-45 45q8 15 15 32t12 34h64q22 0 34.5 12.5t14.5 25.5l1 12v100v2q0 1 -0.5 4.5t-1.5 6.5l-2 7q-2 5 -4.5 9
t-6.5 8t-8.5 6.5t-11.5 4.5t-15 2h-64q-4 11 -8 22.5t-9 22t-11 21.5q11 10 21 20t16.5 17t8.5 8q10 10 13.5 21t1.5 19.5t-5 15.5t-7 11l-3 4l-71 70q0 1 -1.5 2t-5 3.5t-7.5 4.5t-10 4t-12 2q-19 0 -34 -16q-3 -3 -9 -8.5t-16 -15.5l-21 -21q-31 16 -66 27v65q0 14 -5 24
t-12.5 15t-14.5 7.5t-12 3.5h-6zM511 400q27 0 50 -13.5t36.5 -36.5t13.5 -50t-13.5 -50t-36.5 -36t-50 -13q-41 0 -70 29t-29 70.5t29 70.5t70 29zM511 439q-57 0 -97.5 -40.5t-40.5 -98t40.5 -98t98 -40.5t98 40.5t40.5 98t-40.5 98t-98.5 40.5z" />
    <glyph glyph-name="uniE605" unicode="&#xe605;" 
d="M908 436q28 0 48 -20t20 -48v-472q0 -28 -20 -47.5t-48 -19.5h-786q-28 0 -48 19.5t-20 47.5v472q0 28 20 48t48 20h67q25 -38 64.5 -94t118.5 -160.5t109 -125.5q12 -8 19.5 -12t15.5 -4t15 3.5t18 12.5q28 23 101 118t132 178t59 84h67zM125 396q-7 0 -13 -3t-10 -7.5
t-6.5 -10t-4 -10.5t-1.5 -9v-455q0 -16 11 -28t32 -12q15 0 383 0.5t378 0.5q46 0 46 34v246v222q0 9 -8 20t-19 11l-49 1q-4 -3 -52 -67t-104 -138t-113.5 -136t-80.5 -62q-22 0 -65 41.5t-88 100.5t-87 119t-68.5 100.5t-27.5 41.5h-53v0zM547 142q-7 -8 -15 -14.5
t-17 -6.5q-16 0 -32 21q-12 17 -48.5 62t-62 79t-55 78.5t-45 84t-15.5 70.5q0 107 75.5 182t182.5 75t182.5 -75t75.5 -182q0 -31 -15.5 -70.5t-45 -84t-55 -78.5t-62 -79t-48.5 -62zM515 741q-93 0 -158.5 -65.5t-65.5 -157.5q0 -35 23 -85t55.5 -97.5t66 -89.5t56 -68
t24 -26t24 26t55.5 68t65.5 89.5t55.5 97.5t23 85q0 92 -65.5 157.5t-158.5 65.5zM125 396zM515 687q-69 0 -117.5 -48.5t-48.5 -117t48.5 -117t117.5 -48.5t117.5 48.5t48.5 116.5q0 27 -8.5 52.5t-24 46t-35.5 35.5t-45.5 23.5t-52.5 8.5zM647 521q0 -21 -6.5 -41
t-18.5 -36.5t-28.5 -28.5t-36.5 -19t-42 -7q-54 0 -93 39t-39 93q0 36 18 66.5t48 48t66 17.5q55 0 93.5 -38.5t38.5 -93.5z" />
    <glyph glyph-name="uniE606" unicode="&#xe606;" 
d="M274 -150h43h552q12 0 22 6t16 16t6 22v76q6 0 12 2.5t10.5 6.5t7 10t2.5 13v9v349q0 5 -1 9.5t-3 9t-5 8t-7 6.5t-8 5.5t-9 3.5t-10 1h-376q1 7 2.5 27.5t3.5 41t2 49t-1.5 54t-8 54t-16.5 50.5q-14 31 -40.5 48.5t-54 20.5t-52.5 -0.5t-41.5 -11.5t-16.5 -15
q3 -3 6.5 -8.5t12.5 -22.5t16.5 -34.5t14.5 -41.5t9 -46q2 -23 -2 -47t-11 -42.5t-15.5 -35t-15.5 -26.5t-12 -14h-184q-9 0 -17 -3.5t-13.5 -9.5t-9 -14t-3.5 -16v-466q0 -18 12.5 -31t30.5 -13h141h11zM274 360v-466h-114q-16 0 -27 10t-11 24v397q0 14 11 24.5t27 10.5
h114zM664 240q0 -4 1.5 -8t4.5 -7t7 -4.5t8 -1.5h217v-87h-217q-6 0 -11 -3t-7.5 -8t-2.5 -11t2.5 -10.5t7.5 -7.5t11 -3h217v-76h-217q-6 0 -11 -3t-7.5 -8t-2.5 -11q0 -4 1.5 -8t4.5 -7t7 -4.5t8 -1.5h184v-42q0 -7 -2.5 -13.5t-8 -11t-12 -7t-14.5 -2.5h-515v466
q1 1 3.5 2.5t5.5 5.5l8 7q4 4 8.5 9.5t9 12t9.5 15t9 17.5q18 40 22.5 84t-1 77.5t-14.5 61.5t-16.5 43t-8.5 15q8 7 30.5 6.5t51 -12.5t36.5 -28q11 -20 17.5 -40t9.5 -35t3 -41t-1 -41.5t-4 -54t-5 -61.5q-1 -20 4 -30q1 -2 2.5 -6t2.5 -4.5t5.5 -1.5t13.5 -1h346
q11 0 19.5 -5t13.5 -13t5 -17v-63h-217q-9 0 -15 -6.5t-6 -15.5zM176 -20q0 -9 6.5 -15t15.5 -6t15.5 6t6.5 15t-6.5 15.5t-15.5 6.5q-5 0 -9 -1.5t-6.5 -4.5t-4.5 -7t-2 -9z" />
    <glyph glyph-name="uniE607" unicode="&#xe607;" 
d="M314 652v-730l437 369z" />
    <glyph glyph-name="uniE608" unicode="&#xe608;" 
d="M750 180v1v0v-1zM725 193v0v0zM512 -59l-299 299q-27 22 -57 70q-44 70 -44 135q0 100 56 157t156 57q52 0 101 -32t87 -71q99 103 188 103q100 0 156 -57t56 -157q0 -31 -10 -63.5t-24 -55.5t-30 -44.5t-25 -30.5l-12 -12zM320 613q-17 0 -33.5 -2.5t-36 -8.5t-35.5 -18
t-29.5 -29.5t-21.5 -45t-8 -62.5q0 -30 12 -61.5t30.5 -56t28 -35.5t16.5 -19l269 -268l268 268h1q6 6 12.5 13t21 26.5t25 38t19.5 44.5t9 50q0 35 -8 62.5t-21.5 45t-29.5 29.5t-36 18t-36 8.5t-34 2.5q-27 0 -56.5 -13.5t-55 -35.5t-37 -33.5t-21.5 -23.5l-1 -1l-20 -24
l-20 24v1q-8 9 -19.5 20.5t-37 34t-56.5 37t-59 14.5z" />
    <glyph glyph-name="uniE609" unicode="&#xe609;" 
d="M228 -153l55 -55l509 508l-509 509l-55 -55l454 -454zM228 -153z" />
    <glyph glyph-name="uniE60A" unicode="&#xe60a;" 
d="M733 -125q3 3 5.5 7.5t3.5 9t1 9t-1 9t-3.5 8.5t-5.5 8l-372 369l370 374q11 10 11 25t-11 25q-4 5 -9.5 7.5t-11 3t-11 0t-10.5 -3.5t-9 -7l-394 -397v-2h-1l-1 -1q-3 -3 -5.5 -7t-3.5 -8.5t-1 -9.5q0 -15 11 -25l397 -394q4 -4 8 -6.5t8.5 -3.5t9 -1t9 1.5t9 3.5t7.5 6
zM733 -125z" />
    <glyph glyph-name="uniE60B" unicode="&#xe60b;" 
d="M534 57l416 417q6 6 8.5 14t0 16.5t-8.5 14.5q-9 9 -22.5 9t-22.5 -9l-374 -373l-10 -11q-3 -3 -6.5 -4t-6 -0.5t-4.5 2t-3 2.5l-1 1l-381 381q-6 6 -14.5 8t-16.5 0t-14 -8q-10 -10 -10 -23t10 -23l412 -412h1v-1l1 -1q10 -9 23 -9t23 9z" />
    <glyph glyph-name="uniE60C" unicode="&#xe60c;" 
d="M490 531l-416 -417q-4 -3 -6.5 -8t-3 -9.5t0 -9.5t3 -9.5t6.5 -8.5q6 -6 14 -8.5t16.5 0t14.5 8.5l374 374l10 10q6 5 10.5 4.5t7.5 -2.5l3 -3l11 -11l370 -370q5 -4 11 -6.5t12 -2.5t12 2.5t10.5 7t7 10.5t2.5 12t-2.5 12t-7.5 11l-412 412l-1 1l-1 1q-6 6 -14.5 8.5
t-16.5 0t-15 -8.5z" />
    <glyph glyph-name="uniE60D" unicode="&#xe60d;" 
d="M513 703q40 0 68 -29l380 -386q29 -32 27 -66q-1 -29 -25 -54h-116h-26v-25v-210q0 -20 -7.5 -38t-21.5 -32q-29 -30 -71 -30h-418q-20 0 -38 7.5t-32 22.5q-30 29 -30 70v210v25h-25h-115q-12 13 -19 26.5t-8 27.5q-2 33 30 66l131 134l8 7v11v184q0 16 10.5 27t26.5 11
q15 0 26 -11t11 -27v-57v-62l44 44l122 125q7 7 15 12.5t16.5 9t18 5.5t18.5 2zM513 729q-11 0 -22.5 -2.5t-22.5 -7t-21.5 -11.5t-19.5 -16l-123 -125v57q0 26 -18 44.5t-44 18.5t-44.5 -18.5t-18.5 -44.5v-184l-131 -134q-40 -44 -37.5 -86.5t42.5 -76.5h125v-210
q0 -34 16.5 -63t45.5 -45.5t63 -16.5h418q26 0 49 10t40 26.5t27 40t10 48.5v210h126q38 34 40.5 77.5t-34.5 85.5l-379 386q-12 12 -26.5 20.5t-29.5 12.5t-31 4z" />
    <glyph glyph-name="uniE60E" unicode="&#xe60e;" 
d="M495 244q-77 0 -131 54.5t-54 131t54 131t131 54.5t131 -54.5t54 -131t-54 -131t-131 -54.5zM495 549q-49 0 -84.5 -35t-35.5 -84.5t35.5 -84.5t85 -35t84.5 35t35 85q0 32 -16 59.5t-43.5 43.5t-60.5 16zM660 652q-25 21 -71 35.5t-94 14.5q-122 0 -208 -86.5
t-86 -207.5q0 -64 32 -154.5t76.5 -169t96.5 -134t89 -55.5t89 55.5t97 134t77.5 169t32.5 154.5q0 68 -39 150q1 1 0 6.5t5.5 14t20.5 12.5q9 2 17.5 -0.5t11.5 -6.5l4 -3q5 -9 12.5 -25t19.5 -64.5t10 -97.5q-2 -46 -18.5 -106.5t-42.5 -122.5t-61.5 -122.5t-73.5 -107.5
t-81 -76t-81 -29q-45 0 -97.5 41.5t-97.5 108.5t-83 143.5t-60 153t-22 131.5q0 97 48.5 180t131.5 131.5t180 48.5q95 0 177 -47l4 -2q2 -1 8.5 -5.5t9.5 -9t6 -12t0 -14.5t-6 -12t-6.5 -8t-7.5 -4.5t-7.5 -2t-6.5 -0.5t-5 1h-1z" />
    <glyph glyph-name="uniE60F" unicode="&#xe60f;" 
d="M243 -174q-4 0 -8.5 0.5t-8.5 1.5t-7 2.5t-5 3.5l-6 2l-3 3q-24 19 -29 64q-6 167 -6 253q-5 6 -24 34t-37 54.5t-40.5 61t-36.5 58.5q-22 38 -10 67q10 34 48 48q14 5 31 11.5t33.5 12.5t35 12.5t34.5 12.5l32 12q16 6 29 10.5t23 8.5t16 7q7 9 33.5 44t62 81.5
t54.5 72.5q21 26 55 26q38 0 57 -29q31 -38 91.5 -118.5t62.5 -83.5q13 -5 55.5 -20.5t94.5 -34.5t84 -31q41 -17 48 -48q10 -31 -10 -61q-19 -29 -50 -76.5t-57.5 -87t-33.5 -50.5l-3 -154q0 -10 -8 -18t-18 -8q-16 0 -23 17q-2 5 -2 9l3 160q0 10 3 13q96 144 144 221
q7 12 3 19q-4 8 -19 16q-33 12 -96 36t-102.5 38.5t-41.5 14.5q-1 2 -3.5 3t-5 2.5t-4.5 4.5q-99 135 -156 205q-6 9 -20 9h-4q-3 0 -6.5 -2.5t-5.5 -6.5q-160 -205 -160 -208q-7 -7 -12 -10q-154 -54 -240 -86q-17 -9 -20 -16q-2 -5 0 -11.5t7 -14.5l141 -211q3 -3 3 -13
q0 -3 1 -46l2 -107q2 -65 3 -106q0 -19 7 -26q1 -1 5.5 -1.5t10 0t9.5 1.5q243 70 243 74h16q18 -5 46.5 -14t93.5 -28.5t104 -31.5q10 -2 15 -11t1 -21q-3 -10 -12 -15t-20 -1q-58 26 -218 74q-160 -48 -237 -70q-13 -4 -32 -4z" />
    <glyph glyph-name="uniE610" unicode="&#xe610;" 
d="M939 671q37 -36 54.5 -81.5t17.5 -93.5t-17.5 -93.5t-54.5 -81.5l-391 -388q-36 -37 -89.5 -61t-113.5 -28.5t-122 16t-115 73.5q-52 52 -72.5 113t-16.5 121t28 113t61 90l347 343q9 9 27 4.5t27 -13.5q8 -9 13 -27t-4 -27l-346 -343q-27 -27 -45.5 -64t-21.5 -78.5
t12 -84.5t55 -83q36 -35 79.5 -50t86 -12.5t81.5 19t66 43.5l390 387q27 27 39 57t11.5 59t-14 56.5t-36.5 50.5q-44 43 -98.5 40.5t-109.5 -57.5l-352 -350q-23 -23 -22.5 -51.5t18.5 -47.5q22 -22 51 -18t48 22l319 317q9 10 27 5t27 -14t14 -27t-4 -27l-320 -317
q-37 -37 -70.5 -51t-63 -12.5t-55 15.5t-47.5 35q-17 16 -30.5 41.5t-15.5 56t10.5 65.5t49.5 70q18 19 32 34l23 24l12 11l285 283q36 37 79.5 58t88.5 24t88 -12.5t80 -52.5z" />
    <glyph glyph-name="uniE611" unicode="&#xe611;" 
d="M238 812h-238v-238q0 -5 0.5 -13.5t5 -33t13 -47t26 -50t42 -47t63.5 -33t88 -13.5h237v237v8q0 6 -2 22t-6 32t-12.5 37.5t-20 39.5t-30 37t-41 32t-55 21.5t-70.5 8.5zM402 410h-164q-44 0 -76.5 15t-48.5 34.5t-26 45.5t-12 41t-2 28v165h165q43 0 75.5 -15t49 -34.5
t26 -46t11.5 -41.5t2 -28v-164zM786 812h-8q-5 0 -21.5 -2.5t-32 -6.5t-37 -12t-40 -19.5t-37 -30t-32 -41.5t-21.5 -55.5t-8 -70.5v-237h237h8q6 0 22 2t32 6t37.5 12.5t39.5 20t37 30t32 41t21.5 55t8.5 70.5v238h-238zM951 574q0 -43 -15 -75.5t-34.5 -49t-46 -26
t-41.5 -11.5t-28 -2h-164v164q0 44 15 76.5t34.5 48.5t45.5 26t41 12t28 2h165v-165zM786 263h-237v-237v-8q0 -6 2 -22t6 -32t12.5 -37.5t20 -39.5t30 -37t41 -32t55 -21.5t70.5 -8.5h238v238v8q0 5 -2.5 21.5t-6.5 32t-12 37t-19.5 40t-30 37t-41.5 32t-55.5 21.5t-70.5 8
zM951 -139h-165q-43 0 -75.5 15t-49 34.5t-26 46t-11.5 41.5t-2 28v164h164q44 0 76.5 -15t48.5 -34.5t26 -45.5t12 -41t2 -28v-165zM0 26v-238h238l45 5q131 26 174 131q18 45 18 102v237h-237l-46 -5q-131 -25 -174 -130q-18 -46 -18 -102zM402 26q0 -37 -10 -66t-27 -46
t-34.5 -28.5t-38.5 -16t-32.5 -6.5t-21.5 -2h-165v165q0 43 15 75.5t34.5 49t46 26t41.5 11.5t28 2h164v-164z" />
    <glyph glyph-name="uniE612" unicode="&#xe612;" 
d="M332 -148h60h465q25 0 42.5 17.5t17.5 42.5v75q12 0 22.5 6t16.5 16t6 22v13v347q0 16 -8 30t-22 22t-30 8h-235q5 152 -46 224q-13 18 -34 35.5t-35 26.5l-14 8q-24 9 -50 -3t-26 -36q0 -3 0.5 -7t1.5 -17.5t1 -26.5t-1.5 -31.5t-4 -35.5t-8.5 -35t-15 -33
q-23 -39 -59 -69h-255q-24 0 -42 -17.5t-18 -42.5v-479q0 -25 18 -42.5t42 -17.5h195h15zM332 391v-479h-158q-14 0 -26 6t-19 17.5t-7 24.5v383q0 8 3 15.5t7.5 13t11 10t14.5 7t16 2.5h158zM737 271q0 -6 2.5 -11.5t6.5 -9.5t9.5 -6.5t11.5 -2.5h135v-75h-135q-8 0 -15 -4
t-11 -10.5t-4 -15.5q0 -12 8.5 -21t21.5 -9h135v-60h-135q-6 0 -11.5 -2t-9.5 -6t-6.5 -9.5t-2.5 -12.5q0 -12 8.5 -20.5t21.5 -8.5h90v-27q0 -20 -15.5 -34t-36.5 -14h-413v479q7 4 43 38.5t41 42.5q9 13 16.5 30.5t12 34t8 33.5t5 31t2.5 25.5t1 17.5v7q0 27 4 28
q4 0 24 -7q2 -4 6 -10.5t13.5 -29.5t17 -47t12.5 -60.5t4 -73.5v-13q0 -7 1.5 -15t3.5 -13q4 -7 8.5 -11t13.5 -6t26 -2h195q21 0 36.5 -14t15.5 -34v-42h-135q-13 0 -21.5 -8.5t-8.5 -21.5zM197 31q0 -12 9 -21t21.5 -9t21 9t8.5 21.5t-8.5 21t-21.5 8.5q-8 0 -15 -4
t-11 -10.5t-4 -15.5z" />
    <glyph glyph-name="uniE613" unicode="&#xe613;" 
d="M812 -147h-597q-62 0 -105.5 43.5t-43.5 105.5v597q0 62 43.5 105.5t105.5 43.5h226q-27 -46 -27 -100h-199q-20 0 -35 -14.5t-15 -34.5v-597q0 -13 7 -24.5t18.5 -18.5t24.5 -7h597q13 0 24.5 7t18 18.5t6.5 24.5v112l100 75v-187q0 -62 -43.5 -105.5t-105.5 -43.5z
M692 261q-13 -10 -29 -10q-12 0 -23 5q-27 14 -27 44v48v2q-46 0 -96 -17t-95 -46.5t-84 -67t-67.5 -81.5t-40.5 -86q-15 49 -15 99q0 57 22.5 115.5t62.5 108t89.5 89.5t108.5 62.5t115 22.5v50q0 14 7.5 26t19.5 18q11 5 23 5q16 0 29 -9l199 -150q5 -3 8.5 -7.5t6 -9.5
t4 -11t1.5 -11q0 -25 -20 -40z" />
    <glyph glyph-name="uniE614" unicode="&#xe614;" 
d="M144 8q-3 0 -6.5 0.5t-6 1.5t-5.5 3l-4 4q-3 2 -4.5 5t-2.5 6l-2 6q-1 8 -2 21.5t0.5 48.5t8.5 69t26.5 77t50.5 79q110 128 341 137v95q0 20 18 28.5t33 -4.5l313 -261l4 -4q1 -1 2.5 -3t2 -4t1.5 -4t1 -5v-4q0 -14 -11 -24l-313 -261q-15 -13 -32.5 -4.5t-17.5 28.5
l-1 96h-32q-151 0 -241 -26t-90 -70q0 -13 -8.5 -21.5t-20.5 -9.5h-2zM506 197l65 -1q8 -1 15 -5t10.5 -11t3.5 -15v-60l234 195l-234 196v-61q0 -6 -2.5 -12t-6.5 -10t-9.5 -6.5t-12.5 -2.5q-225 0 -325 -115q-52 -61 -67 -150q97 58 329 58z" />
    <glyph glyph-name="uniE615" unicode="&#xe615;" 
d="M261 153v313q0 13 8.5 22t19.5 9q8 0 14.5 -4t10 -11.5t3.5 -15.5v-313q0 -13 -8 -22.5t-19.5 -9.5t-20 9.5t-8.5 22.5zM932 -62v0l-197 86l-230 -84l-230 63l-174 -87q0 3 -3 3q-13 0 -22 9.5t-9 22.5v594l208 106l118 -47q-3 -14 -4.5 -28t-1.5 -28v-2v-3l-112 45
l-153 -91v-501l153 70l230 -63l230 83l167 -62v382v169q0 7 2.5 13t6 10.5t8.5 7.5t11 3t11 -3t8.5 -7.5t6 -10.5t2.5 -13v-22v-147v-454q-9 -14 -26 -14zM498 245v-136q0 -12 -8 -21t-19.5 -9t-19.5 9t-8 21v136q0 12 8 20.5t19 8.5q21 0 27 -21q1 -4 1 -8zM645 219
q-9 7 -23.5 20t-52 50t-66 72t-51.5 79t-23 78q0 58 28.5 108t78.5 79t109 29q89 0 152 -63.5t63 -152.5q0 -37 -23 -82.5t-51.5 -80t-65.5 -70t-52 -48t-23 -18.5zM645 678q-14 0 -26.5 -2t-24.5 -6t-23 -10t-21 -14t-19 -17t-16 -19.5t-13 -22t-9.5 -24t-6 -26t-2.5 -27.5
q0 -26 16.5 -58.5t40 -60t47.5 -51.5t40 -38l17 -14q6 5 17 13.5t38.5 34t48.5 50.5t38.5 59.5t17.5 64.5q0 46 -21.5 84.5t-58.5 61t-80 22.5zM645 428q-38 0 -64.5 26.5t-26.5 63.5q0 22 9.5 40.5t25.5 31t37 16.5q5 3 12 3q11 0 19 -8.5t8 -20t-8 -19.5t-19 -8v-1
q-12 -2 -20 -11.5t-8 -22.5q0 -14 10 -24.5t25 -10.5q8 0 15 4t12 10t7 14v0q0 12 8.5 20t19.5 8q6 0 11 -2t9 -6t6 -9t2 -11q0 -3 -0.5 -6t-2.5 -6q-1 -6 -3 -11.5t-5 -11t-6.5 -10.5t-7.5 -9.5t-8.5 -8.5t-9.5 -7t-11 -5.5t-11.5 -4.5t-12 -2.5t-12.5 -0.5z" />
    <glyph glyph-name="uniE616" unicode="&#xe616;" 
d="M758 308q-17 3 -22.5 10t-1.5 13l4 5l2 4q1 2 4.5 9.5t5.5 15t3 18t-0.5 20.5t-7 21t-15.5 21q-12 11 -29 17t-35.5 6t-37.5 -2.5t-36 -7.5t-31 -9.5t-21 -7.5l-8 -3q-10 -3 -17 -4.5t-12 -1.5t-7 3t-3 5.5t-0.5 8t1.5 10t3 13t3 13.5q0 17 -2.5 31.5t-12.5 31t-26.5 25
t-47 8t-71.5 -14.5q-119 -40 -242 -186q-15 -18 -23 -29q-24 -32 -40.5 -64t-23 -54t-9 -42.5t-2.5 -26.5v-11q7 -55 34.5 -98t65.5 -70t89.5 -46t99 -27.5t100.5 -12.5q87 -7 179.5 13t173 69.5t113.5 117.5q16 34 19.5 64.5t-5 52t-22 38.5t-31 28t-32 17t-26.5 9z
M401 -48q-125 -6 -214 48t-89 136t88 140.5t215 64.5q63 3 118.5 -8t96.5 -32.5t65 -55t24 -73.5q0 -54 -40.5 -103.5t-111 -81t-152.5 -35.5zM368 269q-35 -4 -61.5 -16t-42 -26.5t-26 -34t-14.5 -35t-5 -31.5t-1 -22t1 -9v-5q0 -4 2 -13.5t6.5 -18.5t14 -19.5t22.5 -17.5
q47 -25 97 -25.5t89 18t66 52.5q15 19 20.5 47.5t-2.5 57.5t-26.5 53.5t-55 37t-84.5 7.5zM325 52q-9 -1 -17.5 0.5t-15.5 5t-12.5 8.5t-8.5 11.5t-3 14.5q0 10 4.5 19.5t11.5 17t17 13t21 6.5q27 2 43.5 -10.5t16.5 -32.5q0 -19 -16.5 -34.5t-40.5 -18.5zM425 135
q-8 -6 -16.5 -5t-13.5 8l-2 4q-1 2 -1 4v6q0 2 1 4.5t2 4.5t3 4l4 4q10 7 18.5 5.5t13 -8.5t2 -16t-10.5 -15zM840 375q11 0 18.5 6.5t9.5 15.5v3q14 128 -89 149q-33 6 -63 1q-7 0 -13.5 -3.5t-10 -10t-3.5 -13.5q0 -11 8 -19t19 -8q37 7 58 0.5t29.5 -22t10.5 -32t1 -28.5
l-2 -12q0 -12 8 -19.5t19 -7.5zM820 691q-58 13 -138 -2l-2 -1h-1l-1 -1q-7 -2 -12.5 -5.5t-9 -8.5t-6 -11t-2.5 -13q0 -16 12 -27.5t28 -11.5h2h2q1 0 2.5 0.5t3.5 1.5h6q2 1 5 1.5t5.5 1.5t5.5 1.5t5 1.5q6 0 20.5 2t38.5 -4t48 -15t49.5 -30t42.5 -49q32 -70 13 -129v-2
q-8 -19 -8 -38q0 -16 11.5 -25.5t28.5 -9.5q6 0 10.5 0.5t9.5 2.5t8 5.5t6 9.5t4 15h1q15 52 16 98t-12 80.5t-33.5 62.5t-48 47.5t-54.5 32t-56 19.5z" />
    <glyph glyph-name="uniE617" unicode="&#xe617;" 
d="M538 -102h-26h-19h-7q-19 0 -25 -7q-19 -19 -52 -28.5t-76 -9.5q-55 0 -103 19q-6 3 -11.5 6.5t-9.5 6.5t-7.5 7t-5.5 7.5t-3 8t-1 9.5q0 14 10.5 24.5t34.5 20.5q14 4 19.5 10t5.5 15q0 26 -6 32q-5 6 -10 15l-12 16q-5 9 -10 14q-10 19 -32 19q-6 0 -10.5 -1.5
t-11.5 -5.5t-10 -6q-19 -18 -26 -19q-11 0 -12 46v5q0 32 12 109q20 58 64 103q13 12 13 32v12q0 29 19 58q5 4 6 8.5t1 10.5v7q0 23 3 44.5t9.5 41.5t16.5 39t23.5 37.5t30.5 35.5q74 83 192 83q19 0 37 -2t35.5 -6.5t34 -11.5t32 -16t30.5 -21t29 -26q27 -30 45 -60
t28.5 -65.5t10.5 -72.5v-7q0 -13 6 -19q19 -29 19 -58v-12q0 -26 13 -32q45 -45 64 -103q21 -65 13 -109q0 -23 -4.5 -34.5t-14.5 -16.5q-7 0 -26 19q-13 13 -32 13h-6h-6q-2 0 -4 -1t-4.5 -1.5t-4.5 -2.5l-4 -2l-3.5 -3.5t-3 -4t-2.5 -4.5q-7 -19 -32 -45q-15 -15 -7 -32
q0 -9 16 -22l3 -3q44 -20 45 -45q0 -14 -9 -24.5t-29 -20.5q-19 -9 -46 -14t-57 -5q-80 0 -128 38q7 0 -3 4zM685 -224q96 0 153 38q31 21 47.5 46t16.5 57q0 35 -19 64h9q3 0 8.5 1.5t8.5 4.5q54 18 64 96q9 67 -19 154q-4 13 -9.5 26t-12 25t-14.5 24t-16.5 23t-18.5 23
q0 42 -19 90q0 48 -11 91.5t-33.5 83.5t-57.5 75q-15 15 -31 27.5t-32.5 23t-34 19t-36 14.5t-37.5 10t-38.5 6t-40.5 2q-48 0 -91.5 -11t-83.5 -33.5t-75 -57.5q-102 -114 -102 -250q-19 -38 -19 -90v-6q-14 -11 -25.5 -25.5t-20 -30t-14 -29.5t-11.5 -30q-28 -87 -19 -154
q5 -37 22 -61.5t42 -34.5q3 0 13 -3t13 -3q-19 -29 -19 -64q0 -66 64 -103q14 -9 30.5 -16.5t35.5 -12t39 -7t42 -2.5q106 0 160 45h32q63 -45 160 -45z" />
    <glyph glyph-name="uniE618" unicode="&#xe618;" horiz-adv-x="1037" 
d="M813 230q9 0 16.5 -4t11.5 -11t4 -17q0 -14 -9 -23t-23 -9q-10 0 -17 4t-11 11.5t-4 16.5q0 15 8.5 23.5t23.5 8.5zM659 198q0 -14 -8.5 -23t-23.5 -9q-27 0 -36 21q-2 6 -2 11q0 15 8.5 23.5t23.5 8.5q27 0 36 -20q2 -6 2 -12zM621 531q23 0 40 -15.5t17 -35.5
q0 -16 -7.5 -27.5t-20.5 -17.5t-29 -6t-27.5 7.5t-17.5 19t-6 24.5q0 28 28 44q12 7 23 7zM320 531q23 0 37 -15.5t14 -35.5q0 -23 -15.5 -37t-35.5 -14q-23 0 -37 15.5t-14 35.5q0 33 29 47q11 4 22 4zM435 141q0 109 83 185.5t199 76.5q64 0 128 -32q-6 91 -60.5 166.5
t-141.5 118t-189 42.5q-103 3 -192 -43.5t-140.5 -129t-51.5 -179.5q0 -63 23.5 -122.5t66.5 -101.5l-70 -154l179 64q54 -18 99 -28t93 -10h19q-21 36 -33 73t-12 74zM518 -51q-9 0 -28.5 -3.5t-28.5 -3.5q-96 0 -192 39l-263 -90l103 224q-83 102 -83 231
q0 110 57.5 202.5t157.5 146.5t220 54q72 0 138.5 -20.5t120 -57.5t93.5 -86.5t61.5 -111t21.5 -127.5q109 -87 109 -205q0 -69 -45 -147l77 -167l-199 71q-51 -26 -115 -26q-128 10 -205 77zM717 358q-33 0 -64 -7.5t-57 -21.5t-48 -34t-36.5 -44t-23 -52t-8.5 -58
q0 -60 32.5 -110t87 -79t117.5 -29q38 0 115 26l109 -39l-39 90q27 32 42.5 65.5t15.5 68.5q0 96 -71 160t-172 64z" />
    <glyph glyph-name="uniE619" unicode="&#xe619;" 
d="M450 283q44 -26 95.5 -16t83.5 52q36 47 29 106t-52.5 95.5t-103.5 29.5t-94 -53q-27 -36 -29.5 -81t19.5 -82q-32 -30 -59 -68t-54 -94t-41.5 -132t-12.5 -163q1 -15 11.5 -25.5t25.5 -10.5h1q15 0 25.5 11.5t9.5 26.5q-2 78 11 146t37 117t47.5 82t50.5 59zM519 759
q-70 0 -134 -28t-110 -75t-73 -112t-27 -136q0 -29 4.5 -57t12.5 -55q5 -15 18.5 -21.5t28 -2t21 18.5t1.5 28q-14 43 -14 89q0 114 79.5 195.5t192.5 81.5q44 0 85 -14t74.5 -40t58.5 -60t39 -76t14 -87q0 -115 -79.5 -196t-191.5 -81q-15 0 -29.5 1.5t-28.5 4.5
q-15 3 -27.5 -5t-16 -23t5 -28t22.5 -17q36 -8 74 -8q93 0 172 47.5t125.5 128t46.5 176.5q0 142 -98 244q-96 101 -232 107h-14z" />
    <glyph glyph-name="uniE61A" unicode="&#xe61a;" 
d="M732 -64v730l-437 -369z" />
    <glyph glyph-name="uniE61B" unicode="&#xe61b;" 
d="M745 469h-20v-492h-64v492h-108v-492h-65v492h-108v-492h-64v492h-42h-88v-514q0 -36 26 -61t62 -25h471q36 0 62 25t26 61v514q0 1 -10.5 1t-35 -0.5t-42.5 -0.5zM875 623h-193v53q0 21 -30 38t-56 17h-173q-12 0 -26.5 -4.5t-28 -11.5t-22.5 -17.5t-9 -21.5v-53h-193
q-12 0 -22 -5.5t-16 -15.5t-6 -22q0 -18 13 -30.5t31 -12.5h731q19 0 31.5 12.5t12.5 30.5q0 12 -6 22t-16 15.5t-22 5.5zM596 623h-173v41h173v-41z" />
    <glyph glyph-name="uniE61C" unicode="&#xe61c;" 
d="M957 408q-2 5 -5.5 9.5t-8.5 7.5t-11 4l-271 42l-120 259q-9 18 -29 18q-21 0 -29 -18l-122 -258l-271 -41q-19 -3 -25.5 -21.5t7.5 -32.5l196 -202l-47 -285q-3 -20 13.5 -31.5t33.5 -1.5l242 133l242 -134q7 -4 15 -4h1q13 0 22.5 9.5t9.5 22.5q0 6 -2 11l-45 279
l197 201q6 7 8 15.5t-1 17.5z" />
    <glyph glyph-name="uniE61D" unicode="&#xe61d;" 
d="M767 -148q-9 1 -15 4l-242 134l-242 -133l-4 -2q-2 -1 -4 -1.5t-4 -0.5h-5q-2 0 -4 0.5t-4.5 1t-4.5 2t-3 2.5q-17 11 -14 31l47 285l-196 202q-14 14 -8 32q2 6 6 10.5t9 7.5t10 4l156 26q13 3 23.5 -5t13 -21t-5.5 -23.5t-21 -13.5l-95 -16l166 -170q11 -12 8 -28
l-39 -235l200 110q15 8 31 -1l199 -110l-38 236q-3 16 9 27l164 169l-225 34q-2 1 -4.5 1.5t-4.5 1.5l-4 2q-2 1 -3.5 2.5t-3 3.5t-2.5 3.5t-2 3.5l-100 213l-100 -212q-5 -12 -17.5 -16.5t-24.5 1t-16.5 18t0.5 24.5l130 274q8 18 29 18q9 0 17 -5t12 -13l120 -259l271 -42
q19 -3 25 -21.5t-7 -32.5l-197 -201l46 -285q1 -9 -2.5 -17.5t-11.5 -13.5q-8 -6 -18 -6z" />
    <glyph glyph-name="uniE61E" unicode="&#xe61e;" 
d="M952 318l-384 419q-15 17 -35.5 9t-20.5 -30v-225q-56 -4 -107 -20t-96 -43.5t-84 -67.5t-72 -91q-19 -30 -35 -64t-25 -58.5t-16.5 -49t-9 -33.5t-2.5 -14q-5 -23 15 -34t37 4q5 5 19 15.5t52.5 33.5t82 42.5t109 36.5t132.5 20v-284q0 -22 20 -30q6 -2 12 -2
q14 0 23 10l384 413q9 9 9 21.5t-8 21.5z" />
    <glyph glyph-name="uniE61F" unicode="&#xe61f;" 
d="M544 -148q-3 0 -6 0.5t-6 1.5q-9 4 -14.5 12t-5.5 18v287q-195 -9 -357 -122q-24 -17 -37 -28q-18 -16 -38 -5t-15 34q2 14 7.5 36t28 78.5t52.5 104.5q69 109 168.5 166t222.5 57q9 0 16 -4.5t11.5 -11.5t4.5 -16q0 -13 -9.5 -22.5t-22.5 -9.5q-68 0 -128 -21
t-100.5 -52t-74.5 -74.5t-53 -80t-35 -75.5q182 111 391 111q13 0 22.5 -9.5t9.5 -22.5v-238l308 330l-308 335v-43q0 -13 -9.5 -22.5t-22.5 -9.5t-22.5 9.5t-9.5 22.5v125q0 21 20.5 29t35.5 -8l384 -416q8 -9 8 -21.5t-9 -21.5l-384 -413q-9 -10 -23 -10z" />
  </font>
</defs>
</svg>
